<?xml version="1.0" encoding="UTF-8" standalone="no"?>
<!DOCTYPE svg PUBLIC "-//W3C//DTD SVG 1.1//EN"
 "http://www.w3.org/Graphics/SVG/1.1/DTD/svg11.dtd">
<!-- Generated by graphviz version 2.38.0 (20140413.2041)
 -->
<!-- Title: controllers_diagram Pages: 1 -->
<svg width="802pt" height="582pt"
 viewBox="0.00 0.00 802.37 582.44" xmlns="http://www.w3.org/2000/svg" xmlns:xlink="http://www.w3.org/1999/xlink">
<g id="graph0" class="graph" transform="scale(1 1) rotate(0) translate(347.154 284.721)">
<title>controllers_diagram</title>
<polygon fill="none" stroke="none" points="-347.154,297.715 -347.154,-284.721 455.212,-284.721 455.212,297.715 -347.154,297.715"/>
<!-- ApplicationController -->
<g id="node2" class="node"><title>ApplicationController</title>
<path fill="none" stroke="black" d="M-150.213,118.661C-150.213,118.661 -34.5712,118.661 -34.5712,118.661 -28.5712,118.661 -22.5712,112.661 -22.5712,106.661 -22.5712,106.661 -22.5712,-29.3392 -22.5712,-29.3392 -22.5712,-35.3392 -28.5712,-41.3392 -34.5712,-41.3392 -34.5712,-41.3392 -150.213,-41.3392 -150.213,-41.3392 -156.213,-41.3392 -162.213,-35.3392 -162.213,-29.3392 -162.213,-29.3392 -162.213,106.661 -162.213,106.661 -162.213,112.661 -156.213,118.661 -150.213,118.661"/>
<text text-anchor="middle" x="-92.392" y="-26.1392" font-family="Times,serif" font-size="14.00">ApplicationController</text>
<polyline fill="none" stroke="black" points="-162.213,-19.3392 -22.5712,-19.3392 "/>
<polyline fill="none" stroke="black" points="-162.213,4.66082 -22.5712,4.66082 "/>
<text text-anchor="start" x="-154.213" y="19.8608" font-family="Times,serif" font-size="14.00">authenticate_user</text>
<text text-anchor="start" x="-154.213" y="33.8608" font-family="Times,serif" font-size="14.00">current_user</text>
<text text-anchor="start" x="-154.213" y="47.8608" font-family="Times,serif" font-size="14.00">current_userF</text>
<text text-anchor="start" x="-154.213" y="61.8608" font-family="Times,serif" font-size="14.00">is_admin?</text>
<text text-anchor="start" x="-154.213" y="75.8608" font-family="Times,serif" font-size="14.00">logged_in?</text>
<text text-anchor="start" x="-154.213" y="89.8608" font-family="Times,serif" font-size="14.00">save_login_state</text>
<polyline fill="none" stroke="black" points="-162.213,96.6608 -22.5712,96.6608 "/>
<text text-anchor="start" x="-154.213" y="111.861" font-family="Times,serif" font-size="14.00">_layout</text>
</g>
<!-- BikeRacksController -->
<g id="node3" class="node"><title>BikeRacksController</title>
<path fill="none" stroke="black" d="M-81.2257,-50.2212C-81.2257,-50.2212 53.0506,-50.2212 53.0506,-50.2212 59.0506,-50.2212 65.0506,-56.2212 65.0506,-62.2212 65.0506,-62.2212 65.0506,-268.221 65.0506,-268.221 65.0506,-274.221 59.0506,-280.221 53.0506,-280.221 53.0506,-280.221 -81.2257,-280.221 -81.2257,-280.221 -87.2257,-280.221 -93.2257,-274.221 -93.2257,-268.221 -93.2257,-268.221 -93.2257,-62.2212 -93.2257,-62.2212 -93.2257,-56.2212 -87.2257,-50.2212 -81.2257,-50.2212"/>
<text text-anchor="middle" x="-14.0876" y="-265.021" font-family="Times,serif" font-size="14.00">BikeRacksController</text>
<polyline fill="none" stroke="black" points="-93.2257,-258.221 65.0506,-258.221 "/>
<text text-anchor="start" x="-85.2257" y="-243.021" font-family="Times,serif" font-size="14.00">index</text>
<text text-anchor="start" x="-85.2257" y="-229.021" font-family="Times,serif" font-size="14.00">internal</text>
<text text-anchor="start" x="-85.2257" y="-215.021" font-family="Times,serif" font-size="14.00">show</text>
<text text-anchor="start" x="-85.2257" y="-201.021" font-family="Times,serif" font-size="14.00">update_all</text>
<polyline fill="none" stroke="black" points="-93.2257,-194.221 65.0506,-194.221 "/>
<polyline fill="none" stroke="black" points="-93.2257,-170.221 65.0506,-170.221 "/>
<text text-anchor="start" x="-85.2257" y="-155.021" font-family="Times,serif" font-size="14.00">_layout</text>
<text text-anchor="start" x="-85.2257" y="-141.021" font-family="Times,serif" font-size="14.00">handle_finished_parsing</text>
<text text-anchor="start" x="-85.2257" y="-127.021" font-family="Times,serif" font-size="14.00">handle_format_error</text>
<text text-anchor="start" x="-85.2257" y="-113.021" font-family="Times,serif" font-size="14.00">handle_full_update_error</text>
<text text-anchor="start" x="-85.2257" y="-99.0212" font-family="Times,serif" font-size="14.00">handle_validation_error</text>
<text text-anchor="start" x="-85.2257" y="-85.0212" font-family="Times,serif" font-size="14.00">show_update_rating</text>
<text text-anchor="start" x="-85.2257" y="-71.0212" font-family="Times,serif" font-size="14.00">store_one_bike_rack</text>
<text text-anchor="start" x="-85.2257" y="-57.0212" font-family="Times,serif" font-size="14.00">update_bike_racks</text>
</g>
<!-- ApplicationController&#45;&gt;BikeRacksController -->
<g id="edge1" class="edge"><title>ApplicationController&#45;&gt;BikeRacksController</title>
<path fill="none" stroke="black" d="M-61.5564,-41.6261C-60.4865,-44.4119 -59.4078,-47.2204 -58.3239,-50.0426"/>
</g>
<!-- HomesController -->
<g id="node5" class="node"><title>HomesController</title>
<path fill="none" stroke="black" d="M-293.316,-115.723C-293.316,-115.723 -204.109,-115.723 -204.109,-115.723 -198.109,-115.723 -192.109,-121.723 -192.109,-127.723 -192.109,-127.723 -192.109,-193.723 -192.109,-193.723 -192.109,-199.723 -198.109,-205.723 -204.109,-205.723 -204.109,-205.723 -293.316,-205.723 -293.316,-205.723 -299.316,-205.723 -305.316,-199.723 -305.316,-193.723 -305.316,-193.723 -305.316,-127.723 -305.316,-127.723 -305.316,-121.723 -299.316,-115.723 -293.316,-115.723"/>
<text text-anchor="middle" x="-248.713" y="-190.523" font-family="Times,serif" font-size="14.00">HomesController</text>
<polyline fill="none" stroke="black" points="-305.316,-183.723 -192.109,-183.723 "/>
<text text-anchor="start" x="-297.316" y="-168.523" font-family="Times,serif" font-size="14.00">show</text>
<polyline fill="none" stroke="black" points="-305.316,-161.723 -192.109,-161.723 "/>
<polyline fill="none" stroke="black" points="-305.316,-137.723 -192.109,-137.723 "/>
<text text-anchor="start" x="-297.316" y="-122.523" font-family="Times,serif" font-size="14.00">_layout</text>
</g>
<!-- ApplicationController&#45;&gt;HomesController -->
<g id="edge3" class="edge"><title>ApplicationController&#45;&gt;HomesController</title>
<path fill="none" stroke="black" d="M-155.298,-41.5743C-175.065,-66.7872 -196.187,-93.7276 -213.337,-115.602"/>
</g>
<!-- RatingsController -->
<g id="node6" class="node"><title>RatingsController</title>
<path fill="none" stroke="black" d="M52.6415,82.2611C52.6415,82.2611 144.966,82.2611 144.966,82.2611 150.966,82.2611 156.966,76.2611 156.966,70.2611 156.966,70.2611 156.966,-9.7389 156.966,-9.7389 156.966,-15.7389 150.966,-21.7389 144.966,-21.7389 144.966,-21.7389 52.6415,-21.7389 52.6415,-21.7389 46.6415,-21.7389 40.6415,-15.7389 40.6415,-9.7389 40.6415,-9.7389 40.6415,70.2611 40.6415,70.2611 40.6415,76.2611 46.6415,82.2611 52.6415,82.2611"/>
<text text-anchor="middle" x="98.8036" y="-6.5389" font-family="Times,serif" font-size="14.00">RatingsController</text>
<polyline fill="none" stroke="black" points="40.6415,0.261096 156.966,0.261096 "/>
<text text-anchor="start" x="48.6415" y="15.4611" font-family="Times,serif" font-size="14.00">update</text>
<polyline fill="none" stroke="black" points="40.6415,22.2611 156.966,22.2611 "/>
<polyline fill="none" stroke="black" points="40.6415,46.2611 156.966,46.2611 "/>
<text text-anchor="start" x="48.6415" y="61.4611" font-family="Times,serif" font-size="14.00">_layout</text>
<text text-anchor="start" x="48.6415" y="75.4611" font-family="Times,serif" font-size="14.00">update_score</text>
</g>
<!-- ApplicationController&#45;&gt;RatingsController -->
<g id="edge4" class="edge"><title>ApplicationController&#45;&gt;RatingsController</title>
<path fill="none" stroke="black" d="M-22.5544,35.5927C-1.85946,34.6835 20.576,33.6978 40.4617,32.8242"/>
</g>
<!-- SessionsController -->
<g id="node8" class="node"><title>SessionsController</title>
<path fill="none" stroke="black" d="M-331.154,136.367C-331.154,136.367 -233.374,136.367 -233.374,136.367 -227.374,136.367 -221.374,130.367 -221.374,124.367 -221.374,124.367 -221.374,-39.6331 -221.374,-39.6331 -221.374,-45.6331 -227.374,-51.6331 -233.374,-51.6331 -233.374,-51.6331 -331.154,-51.6331 -331.154,-51.6331 -337.154,-51.6331 -343.154,-45.6331 -343.154,-39.6331 -343.154,-39.6331 -343.154,124.367 -343.154,124.367 -343.154,130.367 -337.154,136.367 -331.154,136.367"/>
<text text-anchor="middle" x="-282.264" y="-36.4331" font-family="Times,serif" font-size="14.00">SessionsController</text>
<polyline fill="none" stroke="black" points="-343.154,-29.6331 -221.374,-29.6331 "/>
<text text-anchor="start" x="-335.154" y="-14.4331" font-family="Times,serif" font-size="14.00">create</text>
<text text-anchor="start" x="-335.154" y="-0.43315" font-family="Times,serif" font-size="14.00">destroy</text>
<text text-anchor="start" x="-335.154" y="13.5669" font-family="Times,serif" font-size="14.00">home</text>
<text text-anchor="start" x="-335.154" y="27.5669" font-family="Times,serif" font-size="14.00">login</text>
<text text-anchor="start" x="-335.154" y="41.5669" font-family="Times,serif" font-size="14.00">login_attempt</text>
<text text-anchor="start" x="-335.154" y="55.5669" font-family="Times,serif" font-size="14.00">logout</text>
<text text-anchor="start" x="-335.154" y="69.5669" font-family="Times,serif" font-size="14.00">profile</text>
<text text-anchor="start" x="-335.154" y="83.5669" font-family="Times,serif" font-size="14.00">setting</text>
<polyline fill="none" stroke="black" points="-343.154,90.3669 -221.374,90.3669 "/>
<polyline fill="none" stroke="black" points="-343.154,114.367 -221.374,114.367 "/>
<text text-anchor="start" x="-335.154" y="129.567" font-family="Times,serif" font-size="14.00">_layout</text>
</g>
<!-- ApplicationController&#45;&gt;SessionsController -->
<g id="edge6" class="edge"><title>ApplicationController&#45;&gt;SessionsController</title>
<path fill="none" stroke="black" d="M-162.284,40.025C-181.635,40.4027 -202.48,40.8096 -221.28,41.1765"/>
</g>
<!-- UsersController -->
<g id="node9" class="node"><title>UsersController</title>
<path fill="none" stroke="black" d="M-41.1999,293.215C-41.1999,293.215 40.2278,293.215 40.2278,293.215 46.2278,293.215 52.2278,287.215 52.2278,281.215 52.2278,281.215 52.2278,187.215 52.2278,187.215 52.2278,181.215 46.2278,175.215 40.2278,175.215 40.2278,175.215 -41.1999,175.215 -41.1999,175.215 -47.1999,175.215 -53.1999,181.215 -53.1999,187.215 -53.1999,187.215 -53.1999,281.215 -53.1999,281.215 -53.1999,287.215 -47.1999,293.215 -41.1999,293.215"/>
<text text-anchor="middle" x="-0.486032" y="190.415" font-family="Times,serif" font-size="14.00">UsersController</text>
<polyline fill="none" stroke="black" points="-53.1999,197.215 52.2278,197.215 "/>
<text text-anchor="start" x="-45.1999" y="212.415" font-family="Times,serif" font-size="14.00">create</text>
<text text-anchor="start" x="-45.1999" y="226.415" font-family="Times,serif" font-size="14.00">new</text>
<polyline fill="none" stroke="black" points="-53.1999,233.215 52.2278,233.215 "/>
<polyline fill="none" stroke="black" points="-53.1999,257.215 52.2278,257.215 "/>
<text text-anchor="start" x="-45.1999" y="272.415" font-family="Times,serif" font-size="14.00">_layout</text>
<text text-anchor="start" x="-45.1999" y="286.415" font-family="Times,serif" font-size="14.00">user_params</text>
</g>
<!-- ApplicationController&#45;&gt;UsersController -->
<g id="edge7" class="edge"><title>ApplicationController&#45;&gt;UsersController</title>
<path fill="none" stroke="black" d="M-54.7451,118.764C-45.8717,137.645 -36.5708,157.435 -28.2259,175.191"/>
</g>
<!-- WelcomeController -->
<g id="node10" class="node"><title>WelcomeController</title>
<path fill="none" stroke="black" d="M-292.448,288.338C-292.448,288.338 -190.382,288.338 -190.382,288.338 -184.382,288.338 -178.382,282.338 -178.382,276.338 -178.382,276.338 -178.382,196.338 -178.382,196.338 -178.382,190.338 -184.382,184.338 -190.382,184.338 -190.382,184.338 -292.448,184.338 -292.448,184.338 -298.448,184.338 -304.448,190.338 -304.448,196.338 -304.448,196.338 -304.448,276.338 -304.448,276.338 -304.448,282.338 -298.448,288.338 -292.448,288.338"/>
<text text-anchor="middle" x="-241.415" y="199.538" font-family="Times,serif" font-size="14.00">WelcomeController</text>
<polyline fill="none" stroke="black" points="-304.448,206.338 -178.382,206.338 "/>
<text text-anchor="start" x="-296.448" y="221.538" font-family="Times,serif" font-size="14.00">index</text>
<text text-anchor="start" x="-296.448" y="235.538" font-family="Times,serif" font-size="14.00">team</text>
<polyline fill="none" stroke="black" points="-304.448,242.338 -178.382,242.338 "/>
<polyline fill="none" stroke="black" points="-304.448,266.338 -178.382,266.338 "/>
<text text-anchor="start" x="-296.448" y="281.538" font-family="Times,serif" font-size="14.00">_layout</text>
</g>
<!-- ApplicationController&#45;&gt;WelcomeController -->
<g id="edge8" class="edge"><title>ApplicationController&#45;&gt;WelcomeController</title>
<path fill="none" stroke="black" d="M-152.791,118.779C-169.411,140.826 -187.004,164.162 -202.096,184.182"/>
</g>
<!-- CleanlinessRatingsController -->
<g id="node4" class="node"><title>CleanlinessRatingsController</title>
<path fill="none" stroke="black" d="M145.579,240.218C145.579,240.218 302.448,240.218 302.448,240.218 308.448,240.218 314.448,234.218 314.448,228.218 314.448,228.218 314.448,162.218 314.448,162.218 314.448,156.218 308.448,150.218 302.448,150.218 302.448,150.218 145.579,150.218 145.579,150.218 139.579,150.218 133.579,156.218 133.579,162.218 133.579,162.218 133.579,228.218 133.579,228.218 133.579,234.218 139.579,240.218 145.579,240.218"/>
<text text-anchor="middle" x="224.014" y="165.418" font-family="Times,serif" font-size="14.00">CleanlinessRatingsController</text>
<polyline fill="none" stroke="black" points="133.579,172.218 314.448,172.218 "/>
<text text-anchor="start" x="141.579" y="187.418" font-family="Times,serif" font-size="14.00">create</text>
<polyline fill="none" stroke="black" points="133.579,194.218 314.448,194.218 "/>
<polyline fill="none" stroke="black" points="133.579,218.218 314.448,218.218 "/>
<text text-anchor="start" x="141.579" y="233.418" font-family="Times,serif" font-size="14.00">_layout</text>
</g>
<!-- RatingsController&#45;&gt;CleanlinessRatingsController -->
<g id="edge2" class="edge"><title>RatingsController&#45;&gt;CleanlinessRatingsController</title>
<path fill="none" stroke="black" d="M138.421,82.4546C154.899,104.164 173.845,129.125 189.717,150.034"/>
</g>
<!-- SafetyRatingsController -->
<g id="node7" class="node"><title>SafetyRatingsController</title>
<path fill="none" stroke="black" d="M155.587,-87.8749C155.587,-87.8749 283.677,-87.8749 283.677,-87.8749 289.677,-87.8749 295.677,-93.8749 295.677,-99.8749 295.677,-99.8749 295.677,-165.875 295.677,-165.875 295.677,-171.875 289.677,-177.875 283.677,-177.875 283.677,-177.875 155.587,-177.875 155.587,-177.875 149.587,-177.875 143.587,-171.875 143.587,-165.875 143.587,-165.875 143.587,-99.8749 143.587,-99.8749 143.587,-93.8749 149.587,-87.8749 155.587,-87.8749"/>
<text text-anchor="middle" x="219.632" y="-162.675" font-family="Times,serif" font-size="14.00">SafetyRatingsController</text>
<polyline fill="none" stroke="black" points="143.587,-155.875 295.677,-155.875 "/>
<text text-anchor="start" x="151.587" y="-140.675" font-family="Times,serif" font-size="14.00">create</text>
<polyline fill="none" stroke="black" points="143.587,-133.875 295.677,-133.875 "/>
<polyline fill="none" stroke="black" points="143.587,-109.875 295.677,-109.875 "/>
<text text-anchor="start" x="151.587" y="-94.6749" font-family="Times,serif" font-size="14.00">_layout</text>
</g>
<!-- RatingsController&#45;&gt;SafetyRatingsController -->
<g id="edge5" class="edge"><title>RatingsController&#45;&gt;SafetyRatingsController</title>
<path fill="none" stroke="black" d="M137.367,-21.8047C153.044,-42.9719 170.991,-67.2026 186.113,-87.6195"/>
</g>
</g>
</svg>
