<?xml version="1.0" encoding="UTF-8" standalone="no"?>
<!DOCTYPE svg PUBLIC "-//W3C//DTD SVG 1.1//EN"
 "http://www.w3.org/Graphics/SVG/1.1/DTD/svg11.dtd">
<!-- Generated by graphviz version 2.38.0 (20140413.2041)
 -->
<!-- Title: controllers_diagram Pages: 1 -->
<svg xmlns="http://www.w3.org/2000/svg" xmlns:xlink="http://www.w3.org/1999/xlink">
<g id="graph0" class="graph" transform="scale(1 1) rotate(0) translate(279.927 293.024)">
<title>controllers_diagram</title>
<polygon fill="none" stroke="none" points="-279.927,279.584 -279.927,-293.024 486.212,-293.024 486.212,279.584 -279.927,279.584"/>
<!-- _diagram_info -->
<g id="node1" class="node"><title>_diagram_info</title>
</g>
<!-- ApplicationController -->
<g id="node2" class="node"><title>ApplicationController</title>
<path fill="none" stroke="black" d="M-182.477,44.9082C-182.477,44.9082 -66.8351,44.9082 -66.8351,44.9082 -60.8351,44.9082 -54.8351,38.9082 -54.8351,32.9082 -54.8351,32.9082 -54.8351,-75.0918 -54.8351,-75.0918 -54.8351,-81.0918 -60.8351,-87.0918 -66.8351,-87.0918 -66.8351,-87.0918 -182.477,-87.0918 -182.477,-87.0918 -188.477,-87.0918 -194.477,-81.0918 -194.477,-75.0918 -194.477,-75.0918 -194.477,32.9082 -194.477,32.9082 -194.477,38.9082 -188.477,44.9082 -182.477,44.9082"/>
<text text-anchor="middle" x="-124.656" y="-71.8918" font-family="Times,serif" font-size="14.00">ApplicationController</text>
<polyline fill="none" stroke="black" points="-194.477,-65.0918 -54.8351,-65.0918 "/>
<polyline fill="none" stroke="black" points="-194.477,-41.0918 -54.8351,-41.0918 "/>
<text text-anchor="start" x="-186.477" y="-25.8918" font-family="Times,serif" font-size="14.00">authenticate_user</text>
<text text-anchor="start" x="-186.477" y="-11.8918" font-family="Times,serif" font-size="14.00">is_admin?</text>
<text text-anchor="start" x="-186.477" y="2.10822" font-family="Times,serif" font-size="14.00">logged_in?</text>
<text text-anchor="start" x="-186.477" y="16.1082" font-family="Times,serif" font-size="14.00">save_login_state</text>
<polyline fill="none" stroke="black" points="-194.477,22.9082 -54.8351,22.9082 "/>
<text text-anchor="start" x="-186.477" y="38.1082" font-family="Times,serif" font-size="14.00">_layout</text>
</g>
<!-- BikeRacksController -->
<g id="node3" class="node"><title>BikeRacksController</title>
<path fill="none" stroke="black" d="M147.654,275.084C147.654,275.084 281.931,275.084 281.931,275.084 287.931,275.084 293.931,269.084 293.931,263.084 293.931,263.084 293.931,57.0836 293.931,57.0836 293.931,51.0836 287.931,45.0836 281.931,45.0836 281.931,45.0836 147.654,45.0836 147.654,45.0836 141.654,45.0836 135.654,51.0836 135.654,57.0836 135.654,57.0836 135.654,263.084 135.654,263.084 135.654,269.084 141.654,275.084 147.654,275.084"/>
<text text-anchor="middle" x="214.793" y="60.2836" font-family="Times,serif" font-size="14.00">BikeRacksController</text>
<polyline fill="none" stroke="black" points="135.654,67.0836 293.931,67.0836 "/>
<text text-anchor="start" x="143.654" y="82.2836" font-family="Times,serif" font-size="14.00">index</text>
<text text-anchor="start" x="143.654" y="96.2836" font-family="Times,serif" font-size="14.00">internal</text>
<text text-anchor="start" x="143.654" y="110.284" font-family="Times,serif" font-size="14.00">show</text>
<text text-anchor="start" x="143.654" y="124.284" font-family="Times,serif" font-size="14.00">update_all</text>
<polyline fill="none" stroke="black" points="135.654,131.084 293.931,131.084 "/>
<polyline fill="none" stroke="black" points="135.654,155.084 293.931,155.084 "/>
<text text-anchor="start" x="143.654" y="170.284" font-family="Times,serif" font-size="14.00">_layout</text>
<text text-anchor="start" x="143.654" y="184.284" font-family="Times,serif" font-size="14.00">handle_finished_parsing</text>
<text text-anchor="start" x="143.654" y="198.284" font-family="Times,serif" font-size="14.00">handle_format_error</text>
<text text-anchor="start" x="143.654" y="212.284" font-family="Times,serif" font-size="14.00">handle_full_update_error</text>
<text text-anchor="start" x="143.654" y="226.284" font-family="Times,serif" font-size="14.00">handle_validation_error</text>
<text text-anchor="start" x="143.654" y="240.284" font-family="Times,serif" font-size="14.00">show_update_rating</text>
<text text-anchor="start" x="143.654" y="254.284" font-family="Times,serif" font-size="14.00">store_one_bike_rack</text>
<text text-anchor="start" x="143.654" y="268.284" font-family="Times,serif" font-size="14.00">update_bike_racks</text>
</g>
<!-- ApplicationController&#45;&gt;BikeRacksController -->
<g id="edge1" class="edge"><title>ApplicationController&#45;&gt;BikeRacksController</title>
<path fill="none" stroke="black" d="M-54.7336,16.2282C0.57928,45.7506 77.8257,86.9797 135.449,117.735"/>
</g>
<!-- RatingsController -->
<g id="node5" class="node"><title>RatingsController</title>
<path fill="none" stroke="black" d="M79.3849,23.7527C79.3849,23.7527 171.709,23.7527 171.709,23.7527 177.709,23.7527 183.709,17.7527 183.709,11.7527 183.709,11.7527 183.709,-68.2473 183.709,-68.2473 183.709,-74.2473 177.709,-80.2473 171.709,-80.2473 171.709,-80.2473 79.3849,-80.2473 79.3849,-80.2473 73.3849,-80.2473 67.3849,-74.2473 67.3849,-68.2473 67.3849,-68.2473 67.3849,11.7527 67.3849,11.7527 67.3849,17.7527 73.3849,23.7527 79.3849,23.7527"/>
<text text-anchor="middle" x="125.547" y="-65.0473" font-family="Times,serif" font-size="14.00">RatingsController</text>
<polyline fill="none" stroke="black" points="67.3849,-58.2473 183.709,-58.2473 "/>
<text text-anchor="start" x="75.3849" y="-43.0473" font-family="Times,serif" font-size="14.00">update</text>
<polyline fill="none" stroke="black" points="67.3849,-36.2473 183.709,-36.2473 "/>
<polyline fill="none" stroke="black" points="67.3849,-12.2473 183.709,-12.2473 "/>
<text text-anchor="start" x="75.3849" y="2.95271" font-family="Times,serif" font-size="14.00">_layout</text>
<text text-anchor="start" x="75.3849" y="16.9527" font-family="Times,serif" font-size="14.00">update_score</text>
</g>
<!-- ApplicationController&#45;&gt;RatingsController -->
<g id="edge3" class="edge"><title>ApplicationController&#45;&gt;RatingsController</title>
<path fill="none" stroke="black" d="M-54.6278,-23.0945C-16.1726,-24.1943 30.9567,-25.5421 67.3676,-26.5834"/>
</g>
<!-- SessionsController -->
<g id="node7" class="node"><title>SessionsController</title>
<path fill="none" stroke="black" d="M-263.927,-128.524C-263.927,-128.524 -166.147,-128.524 -166.147,-128.524 -160.147,-128.524 -154.147,-134.524 -154.147,-140.524 -154.147,-140.524 -154.147,-276.524 -154.147,-276.524 -154.147,-282.524 -160.147,-288.524 -166.147,-288.524 -166.147,-288.524 -263.927,-288.524 -263.927,-288.524 -269.927,-288.524 -275.927,-282.524 -275.927,-276.524 -275.927,-276.524 -275.927,-140.524 -275.927,-140.524 -275.927,-134.524 -269.927,-128.524 -263.927,-128.524"/>
<text text-anchor="middle" x="-215.037" y="-273.324" font-family="Times,serif" font-size="14.00">SessionsController</text>
<polyline fill="none" stroke="black" points="-275.927,-266.524 -154.147,-266.524 "/>
<text text-anchor="start" x="-267.927" y="-251.324" font-family="Times,serif" font-size="14.00">home</text>
<text text-anchor="start" x="-267.927" y="-237.324" font-family="Times,serif" font-size="14.00">login</text>
<text text-anchor="start" x="-267.927" y="-223.324" font-family="Times,serif" font-size="14.00">login_attempt</text>
<text text-anchor="start" x="-267.927" y="-209.324" font-family="Times,serif" font-size="14.00">logout</text>
<text text-anchor="start" x="-267.927" y="-195.324" font-family="Times,serif" font-size="14.00">profile</text>
<text text-anchor="start" x="-267.927" y="-181.324" font-family="Times,serif" font-size="14.00">setting</text>
<polyline fill="none" stroke="black" points="-275.927,-174.524 -154.147,-174.524 "/>
<polyline fill="none" stroke="black" points="-275.927,-150.524 -154.147,-150.524 "/>
<text text-anchor="start" x="-267.927" y="-135.324" font-family="Times,serif" font-size="14.00">_layout</text>
</g>
<!-- ApplicationController&#45;&gt;SessionsController -->
<g id="edge5" class="edge"><title>ApplicationController&#45;&gt;SessionsController</title>
<path fill="none" stroke="black" d="M-156.521,-87.1735C-162.925,-100.454 -169.72,-114.547 -176.327,-128.248"/>
</g>
<!-- UsersController -->
<g id="node8" class="node"><title>UsersController</title>
<path fill="none" stroke="black" d="M-252.975,223.548C-252.975,223.548 -171.547,223.548 -171.547,223.548 -165.547,223.548 -159.547,217.548 -159.547,211.548 -159.547,211.548 -159.547,117.548 -159.547,117.548 -159.547,111.548 -165.547,105.548 -171.547,105.548 -171.547,105.548 -252.975,105.548 -252.975,105.548 -258.975,105.548 -264.975,111.548 -264.975,117.548 -264.975,117.548 -264.975,211.548 -264.975,211.548 -264.975,217.548 -258.975,223.548 -252.975,223.548"/>
<text text-anchor="middle" x="-212.261" y="120.748" font-family="Times,serif" font-size="14.00">UsersController</text>
<polyline fill="none" stroke="black" points="-264.975,127.548 -159.547,127.548 "/>
<text text-anchor="start" x="-256.975" y="142.748" font-family="Times,serif" font-size="14.00">create</text>
<text text-anchor="start" x="-256.975" y="156.748" font-family="Times,serif" font-size="14.00">new</text>
<polyline fill="none" stroke="black" points="-264.975,163.548 -159.547,163.548 "/>
<polyline fill="none" stroke="black" points="-264.975,187.548 -159.547,187.548 "/>
<text text-anchor="start" x="-256.975" y="202.748" font-family="Times,serif" font-size="14.00">_layout</text>
<text text-anchor="start" x="-256.975" y="216.748" font-family="Times,serif" font-size="14.00">user_params</text>
</g>
<!-- ApplicationController&#45;&gt;UsersController -->
<g id="edge6" class="edge"><title>ApplicationController&#45;&gt;UsersController</title>
<path fill="none" stroke="black" d="M-155.912,45.1422C-165.2,64.8222 -175.309,86.2436 -184.367,105.439"/>
</g>
<!-- WelcomeController -->
<g id="node9" class="node"><title>WelcomeController</title>
<path fill="none" stroke="black" d="M-48.1516,236.788C-48.1516,236.788 53.9138,236.788 53.9138,236.788 59.9138,236.788 65.9138,230.788 65.9138,224.788 65.9138,224.788 65.9138,144.788 65.9138,144.788 65.9138,138.788 59.9138,132.788 53.9138,132.788 53.9138,132.788 -48.1516,132.788 -48.1516,132.788 -54.1516,132.788 -60.1516,138.788 -60.1516,144.788 -60.1516,144.788 -60.1516,224.788 -60.1516,224.788 -60.1516,230.788 -54.1516,236.788 -48.1516,236.788"/>
<text text-anchor="middle" x="2.88112" y="147.988" font-family="Times,serif" font-size="14.00">WelcomeController</text>
<polyline fill="none" stroke="black" points="-60.1516,154.788 65.9138,154.788 "/>
<text text-anchor="start" x="-52.1516" y="169.988" font-family="Times,serif" font-size="14.00">index</text>
<text text-anchor="start" x="-52.1516" y="183.988" font-family="Times,serif" font-size="14.00">team</text>
<polyline fill="none" stroke="black" points="-60.1516,190.788 65.9138,190.788 "/>
<polyline fill="none" stroke="black" points="-60.1516,214.788 65.9138,214.788 "/>
<text text-anchor="start" x="-52.1516" y="229.988" font-family="Times,serif" font-size="14.00">_layout</text>
</g>
<!-- ApplicationController&#45;&gt;WelcomeController -->
<g id="edge7" class="edge"><title>ApplicationController&#45;&gt;WelcomeController</title>
<path fill="none" stroke="black" d="M-83.6004,45.1832C-66.0511,73.5126 -45.8619,106.104 -29.4062,132.668"/>
</g>
<!-- CleanlinessRatingsController -->
<g id="node4" class="node"><title>CleanlinessRatingsController</title>
<path fill="none" stroke="black" d="M133.775,-168.956C133.775,-168.956 290.644,-168.956 290.644,-168.956 296.644,-168.956 302.644,-174.956 302.644,-180.956 302.644,-180.956 302.644,-246.956 302.644,-246.956 302.644,-252.956 296.644,-258.956 290.644,-258.956 290.644,-258.956 133.775,-258.956 133.775,-258.956 127.775,-258.956 121.775,-252.956 121.775,-246.956 121.775,-246.956 121.775,-180.956 121.775,-180.956 121.775,-174.956 127.775,-168.956 133.775,-168.956"/>
<text text-anchor="middle" x="212.21" y="-243.756" font-family="Times,serif" font-size="14.00">CleanlinessRatingsController</text>
<polyline fill="none" stroke="black" points="121.775,-236.956 302.644,-236.956 "/>
<text text-anchor="start" x="129.775" y="-221.756" font-family="Times,serif" font-size="14.00">create</text>
<polyline fill="none" stroke="black" points="121.775,-214.956 302.644,-214.956 "/>
<polyline fill="none" stroke="black" points="121.775,-190.956 302.644,-190.956 "/>
<text text-anchor="start" x="129.775" y="-175.756" font-family="Times,serif" font-size="14.00">_layout</text>
</g>
<!-- RatingsController&#45;&gt;CleanlinessRatingsController -->
<g id="edge2" class="edge"><title>RatingsController&#45;&gt;CleanlinessRatingsController</title>
<path fill="none" stroke="black" d="M149.918,-80.4716C162.885,-108.257 178.673,-142.09 191.11,-168.741"/>
</g>
<!-- SafetyRatingsController -->
<g id="node6" class="node"><title>SafetyRatingsController</title>
<path fill="none" stroke="black" d="M-69.0283,-188.911C-69.0283,-188.911 59.0615,-188.911 59.0615,-188.911 65.0615,-188.911 71.0615,-194.911 71.0615,-200.911 71.0615,-200.911 71.0615,-266.911 71.0615,-266.911 71.0615,-272.911 65.0615,-278.911 59.0615,-278.911 59.0615,-278.911 -69.0283,-278.911 -69.0283,-278.911 -75.0283,-278.911 -81.0283,-272.911 -81.0283,-266.911 -81.0283,-266.911 -81.0283,-200.911 -81.0283,-200.911 -81.0283,-194.911 -75.0283,-188.911 -69.0283,-188.911"/>
<text text-anchor="middle" x="-4.98342" y="-263.711" font-family="Times,serif" font-size="14.00">SafetyRatingsController</text>
<polyline fill="none" stroke="black" points="-81.0283,-256.911 71.0615,-256.911 "/>
<text text-anchor="start" x="-73.0283" y="-241.711" font-family="Times,serif" font-size="14.00">create</text>
<polyline fill="none" stroke="black" points="-81.0283,-234.911 71.0615,-234.911 "/>
<polyline fill="none" stroke="black" points="-81.0283,-210.911 71.0615,-210.911 "/>
<text text-anchor="start" x="-73.0283" y="-195.711" font-family="Times,serif" font-size="14.00">_layout</text>
</g>
<!-- RatingsController&#45;&gt;SafetyRatingsController -->
<g id="edge4" class="edge"><title>RatingsController&#45;&gt;SafetyRatingsController</title>
<path fill="none" stroke="black" d="M92.4399,-80.4107C71.2162,-113.851 43.9437,-156.821 23.6548,-188.788"/>
</g>
</g>
</svg>
