<?xml version="1.0" encoding="UTF-8" standalone="no"?>
<!DOCTYPE svg PUBLIC "-//W3C//DTD SVG 1.1//EN"
 "http://www.w3.org/Graphics/SVG/1.1/DTD/svg11.dtd">
<!-- Generated by graphviz version 2.38.0 (20140413.2041)
 -->
<!-- Title: models_diagram Pages: 1 -->
<svg width="649pt" height="632pt"
 viewBox="0.00 0.00 648.82 632.00" xmlns="http://www.w3.org/2000/svg" xmlns:xlink="http://www.w3.org/1999/xlink">
<g id="graph0" class="graph" transform="scale(1 1) rotate(0) translate(4 628)">
<title>models_diagram</title>
<polygon fill="none" stroke="none" points="-4,4 -4,-628 644.824,-628 644.824,4 -4,4"/>
<!-- BikeRack -->
<g id="node2" class="node"><title>BikeRack</title>
<path fill="none" stroke="black" d="M71.0994,-330.5C71.0994,-330.5 207.324,-330.5 207.324,-330.5 213.324,-330.5 219.324,-336.5 219.324,-342.5 219.324,-342.5 219.324,-502.5 219.324,-502.5 219.324,-508.5 213.324,-514.5 207.324,-514.5 207.324,-514.5 71.0994,-514.5 71.0994,-514.5 65.0994,-514.5 59.0994,-508.5 59.0994,-502.5 59.0994,-502.5 59.0994,-342.5 59.0994,-342.5 59.0994,-336.5 65.0994,-330.5 71.0994,-330.5"/>
<text text-anchor="middle" x="139.212" y="-499.3" font-family="Times,serif" font-size="14.00">BikeRack</text>
<polyline fill="none" stroke="black" points="59.0994,-492.5 219.324,-492.5 "/>
<text text-anchor="start" x="67.0994" y="-477.3" font-family="Times,serif" font-size="14.00">id :INTEGER</text>
<text text-anchor="start" x="67.0994" y="-463.3" font-family="Times,serif" font-size="14.00">street_number :varchar</text>
<text text-anchor="start" x="67.0994" y="-449.3" font-family="Times,serif" font-size="14.00">street_name :varchar</text>
<text text-anchor="start" x="67.0994" y="-435.3" font-family="Times,serif" font-size="14.00">street_side :varchar</text>
<text text-anchor="start" x="67.0994" y="-421.3" font-family="Times,serif" font-size="14.00">number_of_racks :integer</text>
<text text-anchor="start" x="67.0994" y="-407.3" font-family="Times,serif" font-size="14.00">latitude :float</text>
<text text-anchor="start" x="67.0994" y="-393.3" font-family="Times,serif" font-size="14.00">longitude :float</text>
<text text-anchor="start" x="67.0994" y="-379.3" font-family="Times,serif" font-size="14.00">created_at :datetime</text>
<text text-anchor="start" x="67.0994" y="-365.3" font-family="Times,serif" font-size="14.00">updated_at :datetime</text>
<text text-anchor="start" x="67.0994" y="-351.3" font-family="Times,serif" font-size="14.00">avg_cleanliness :float</text>
<text text-anchor="start" x="67.0994" y="-337.3" font-family="Times,serif" font-size="14.00">avg_safety :float</text>
</g>
<!-- CleanlinessRating -->
<g id="node3" class="node"><title>CleanlinessRating</title>
<path fill="none" stroke="black" d="M194.541,-0.5C194.541,-0.5 305.883,-0.5 305.883,-0.5 311.883,-0.5 317.883,-6.5 317.883,-12.5 317.883,-12.5 317.883,-116.5 317.883,-116.5 317.883,-122.5 311.883,-128.5 305.883,-128.5 305.883,-128.5 194.541,-128.5 194.541,-128.5 188.541,-128.5 182.541,-122.5 182.541,-116.5 182.541,-116.5 182.541,-12.5 182.541,-12.5 182.541,-6.5 188.541,-0.5 194.541,-0.5"/>
<text text-anchor="middle" x="250.212" y="-113.3" font-family="Times,serif" font-size="14.00">CleanlinessRating</text>
<polyline fill="none" stroke="black" points="182.541,-106.5 317.883,-106.5 "/>
<text text-anchor="start" x="190.541" y="-91.3" font-family="Times,serif" font-size="14.00">id :INTEGER</text>
<text text-anchor="start" x="190.541" y="-77.3" font-family="Times,serif" font-size="14.00">user_id :integer</text>
<text text-anchor="start" x="190.541" y="-63.3" font-family="Times,serif" font-size="14.00">bike_rack_id :integer</text>
<text text-anchor="start" x="190.541" y="-49.3" font-family="Times,serif" font-size="14.00">type :varchar</text>
<text text-anchor="start" x="190.541" y="-35.3" font-family="Times,serif" font-size="14.00">score :integer</text>
<text text-anchor="start" x="190.541" y="-21.3" font-family="Times,serif" font-size="14.00">created_at :datetime</text>
<text text-anchor="start" x="190.541" y="-7.3" font-family="Times,serif" font-size="14.00">updated_at :datetime</text>
</g>
<!-- BikeRack&#45;&gt;CleanlinessRating -->
<g id="edge1" class="edge"><title>BikeRack&#45;&gt;CleanlinessRating</title>
<path fill="none" stroke="#961a98" d="M138.53,-322.156C141.316,-273.191 149.467,-214.24 170.212,-165 174.222,-155.48 179.424,-146.129 185.251,-137.2"/>
<ellipse fill="none" stroke="#961a98" cx="138.319" cy="-326.242" rx="4" ry="4"/>
<polygon fill="#961a98" stroke="#961a98" points="185.365,-137.032 194.724,-131.317 188.187,-132.905 191.01,-128.777 191.01,-128.777 191.01,-128.777 188.187,-132.905 187.295,-126.237 185.365,-137.032 185.365,-137.032"/>
</g>
<!-- SafetyRating -->
<g id="node5" class="node"><title>SafetyRating</title>
<path fill="none" stroke="black" d="M41.5408,-0.5C41.5408,-0.5 152.883,-0.5 152.883,-0.5 158.883,-0.5 164.883,-6.5 164.883,-12.5 164.883,-12.5 164.883,-116.5 164.883,-116.5 164.883,-122.5 158.883,-128.5 152.883,-128.5 152.883,-128.5 41.5408,-128.5 41.5408,-128.5 35.5408,-128.5 29.5408,-122.5 29.5408,-116.5 29.5408,-116.5 29.5408,-12.5 29.5408,-12.5 29.5408,-6.5 35.5408,-0.5 41.5408,-0.5"/>
<text text-anchor="middle" x="97.2117" y="-113.3" font-family="Times,serif" font-size="14.00">SafetyRating</text>
<polyline fill="none" stroke="black" points="29.5408,-106.5 164.883,-106.5 "/>
<text text-anchor="start" x="37.5408" y="-91.3" font-family="Times,serif" font-size="14.00">id :INTEGER</text>
<text text-anchor="start" x="37.5408" y="-77.3" font-family="Times,serif" font-size="14.00">user_id :integer</text>
<text text-anchor="start" x="37.5408" y="-63.3" font-family="Times,serif" font-size="14.00">bike_rack_id :integer</text>
<text text-anchor="start" x="37.5408" y="-49.3" font-family="Times,serif" font-size="14.00">type :varchar</text>
<text text-anchor="start" x="37.5408" y="-35.3" font-family="Times,serif" font-size="14.00">score :integer</text>
<text text-anchor="start" x="37.5408" y="-21.3" font-family="Times,serif" font-size="14.00">created_at :datetime</text>
<text text-anchor="start" x="37.5408" y="-7.3" font-family="Times,serif" font-size="14.00">updated_at :datetime</text>
</g>
<!-- BikeRack&#45;&gt;SafetyRating -->
<g id="edge2" class="edge"><title>BikeRack&#45;&gt;SafetyRating</title>
<path fill="none" stroke="#b163c5" d="M127.478,-322.041C120.613,-263.856 112.096,-191.666 105.848,-138.701"/>
<ellipse fill="none" stroke="#b163c5" cx="127.981" cy="-326.311" rx="4.00001" ry="4.00001"/>
<polygon fill="#b163c5" stroke="#b163c5" points="105.841,-138.641 109.138,-128.182 105.255,-133.675 104.669,-128.709 104.669,-128.709 104.669,-128.709 105.255,-133.675 100.2,-129.237 105.841,-138.641 105.841,-138.641"/>
</g>
<!-- Rating -->
<g id="node4" class="node"><title>Rating</title>
<path fill="none" stroke="black" d="M191.541,-165.5C191.541,-165.5 302.883,-165.5 302.883,-165.5 308.883,-165.5 314.883,-171.5 314.883,-177.5 314.883,-177.5 314.883,-281.5 314.883,-281.5 314.883,-287.5 308.883,-293.5 302.883,-293.5 302.883,-293.5 191.541,-293.5 191.541,-293.5 185.541,-293.5 179.541,-287.5 179.541,-281.5 179.541,-281.5 179.541,-177.5 179.541,-177.5 179.541,-171.5 185.541,-165.5 191.541,-165.5"/>
<text text-anchor="middle" x="247.212" y="-278.3" font-family="Times,serif" font-size="14.00">Rating</text>
<polyline fill="none" stroke="black" points="179.541,-271.5 314.883,-271.5 "/>
<text text-anchor="start" x="187.541" y="-256.3" font-family="Times,serif" font-size="14.00">id :INTEGER</text>
<text text-anchor="start" x="187.541" y="-242.3" font-family="Times,serif" font-size="14.00">user_id :integer</text>
<text text-anchor="start" x="187.541" y="-228.3" font-family="Times,serif" font-size="14.00">bike_rack_id :integer</text>
<text text-anchor="start" x="187.541" y="-214.3" font-family="Times,serif" font-size="14.00">type :varchar</text>
<text text-anchor="start" x="187.541" y="-200.3" font-family="Times,serif" font-size="14.00">score :integer</text>
<text text-anchor="start" x="187.541" y="-186.3" font-family="Times,serif" font-size="14.00">created_at :datetime</text>
<text text-anchor="start" x="187.541" y="-172.3" font-family="Times,serif" font-size="14.00">updated_at :datetime</text>
</g>
<!-- Rating&#45;&gt;CleanlinessRating -->
<g id="edge4" class="edge"><title>Rating&#45;&gt;CleanlinessRating</title>
<path fill="none" stroke="black" d="M248.372,-165.48C248.594,-153.386 248.827,-140.719 249.05,-128.621"/>
</g>
<!-- Rating&#45;&gt;SafetyRating -->
<g id="edge6" class="edge"><title>Rating&#45;&gt;SafetyRating</title>
<path fill="none" stroke="black" d="M189.218,-165.48C178.088,-153.386 166.431,-140.719 155.299,-128.621"/>
</g>
<!-- User -->
<g id="node6" class="node"><title>User</title>
<path fill="none" stroke="black" d="M286.996,-358.5C286.996,-358.5 443.427,-358.5 443.427,-358.5 449.427,-358.5 455.427,-364.5 455.427,-370.5 455.427,-370.5 455.427,-474.5 455.427,-474.5 455.427,-480.5 449.427,-486.5 443.427,-486.5 443.427,-486.5 286.996,-486.5 286.996,-486.5 280.996,-486.5 274.996,-480.5 274.996,-474.5 274.996,-474.5 274.996,-370.5 274.996,-370.5 274.996,-364.5 280.996,-358.5 286.996,-358.5"/>
<text text-anchor="middle" x="365.212" y="-471.3" font-family="Times,serif" font-size="14.00">User</text>
<polyline fill="none" stroke="black" points="274.996,-464.5 455.427,-464.5 "/>
<text text-anchor="start" x="282.996" y="-449.3" font-family="Times,serif" font-size="14.00">id :INTEGER</text>
<text text-anchor="start" x="282.996" y="-435.3" font-family="Times,serif" font-size="14.00">username :varchar</text>
<text text-anchor="start" x="282.996" y="-421.3" font-family="Times,serif" font-size="14.00">email :varchar</text>
<text text-anchor="start" x="282.996" y="-407.3" font-family="Times,serif" font-size="14.00">encrypted_password :varchar</text>
<text text-anchor="start" x="282.996" y="-393.3" font-family="Times,serif" font-size="14.00">salt :varchar</text>
<text text-anchor="start" x="282.996" y="-379.3" font-family="Times,serif" font-size="14.00">created_at :datetime</text>
<text text-anchor="start" x="282.996" y="-365.3" font-family="Times,serif" font-size="14.00">updated_at :datetime</text>
</g>
<!-- User&#45;&gt;Rating -->
<g id="edge7" class="edge"><title>User&#45;&gt;Rating</title>
<path fill="none" stroke="#3b168f" d="M321.97,-351.507C312.072,-335.486 301.536,-318.432 291.592,-302.335"/>
<ellipse fill="none" stroke="#3b168f" cx="324.145" cy="-355.027" rx="4.00002" ry="4.00002"/>
<polygon fill="#3b168f" stroke="#3b168f" points="291.391,-302.011 289.964,-291.138 288.763,-297.757 286.135,-293.504 286.135,-293.504 286.135,-293.504 288.763,-297.757 282.307,-295.869 291.391,-302.011 291.391,-302.011"/>
</g>
<!-- Authentication -->
<g id="node9" class="node"><title>Authentication</title>
<ellipse fill="none" stroke="black" cx="395.212" cy="-229.5" rx="62.8252" ry="18"/>
<text text-anchor="middle" x="395.212" y="-225.3" font-family="Times,serif" font-size="14.00">Authentication</text>
</g>
<!-- User&#45;&gt;Authentication -->
<g id="edge8" class="edge"><title>User&#45;&gt;Authentication</title>
<path fill="none" stroke="#4ee32d" d="M376.424,-350.114C381.476,-317.95 387.141,-281.881 390.917,-257.842"/>
<ellipse fill="none" stroke="#4ee32d" cx="375.739" cy="-354.479" rx="4.00001" ry="4.00001"/>
<polygon fill="#4ee32d" stroke="#4ee32d" points="390.958,-257.58 396.955,-248.399 391.734,-252.64 392.51,-247.701 392.51,-247.701 392.51,-247.701 391.734,-252.64 388.064,-247.003 390.958,-257.58 390.958,-257.58"/>
</g>
<!-- UserF -->
<g id="node7" class="node"><title>UserF</title>
<path fill="none" stroke="black" d="M485.599,-351.5C485.599,-351.5 628.824,-351.5 628.824,-351.5 634.824,-351.5 640.824,-357.5 640.824,-363.5 640.824,-363.5 640.824,-481.5 640.824,-481.5 640.824,-487.5 634.824,-493.5 628.824,-493.5 628.824,-493.5 485.599,-493.5 485.599,-493.5 479.599,-493.5 473.599,-487.5 473.599,-481.5 473.599,-481.5 473.599,-363.5 473.599,-363.5 473.599,-357.5 479.599,-351.5 485.599,-351.5"/>
<text text-anchor="middle" x="557.212" y="-478.3" font-family="Times,serif" font-size="14.00">UserF</text>
<polyline fill="none" stroke="black" points="473.599,-471.5 640.824,-471.5 "/>
<text text-anchor="start" x="481.599" y="-456.3" font-family="Times,serif" font-size="14.00">id :INTEGER</text>
<text text-anchor="start" x="481.599" y="-442.3" font-family="Times,serif" font-size="14.00">provider :varchar</text>
<text text-anchor="start" x="481.599" y="-428.3" font-family="Times,serif" font-size="14.00">uid :varchar</text>
<text text-anchor="start" x="481.599" y="-414.3" font-family="Times,serif" font-size="14.00">name :varchar</text>
<text text-anchor="start" x="481.599" y="-400.3" font-family="Times,serif" font-size="14.00">oauth_token :varchar</text>
<text text-anchor="start" x="481.599" y="-386.3" font-family="Times,serif" font-size="14.00">oauth_expires_at :datetime</text>
<text text-anchor="start" x="481.599" y="-372.3" font-family="Times,serif" font-size="14.00">created_at :datetime</text>
<text text-anchor="start" x="481.599" y="-358.3" font-family="Times,serif" font-size="14.00">updated_at :datetime</text>
</g>
<!-- ActiveRecord::Base -->
<g id="node8" class="node"><title>ActiveRecord::Base</title>
<ellipse fill="none" stroke="black" cx="306.212" cy="-587.5" rx="81.1422" ry="18"/>
<text text-anchor="middle" x="306.212" y="-583.3" font-family="Times,serif" font-size="14.00">ActiveRecord::Base</text>
</g>
<!-- ActiveRecord::Base&#45;&gt;BikeRack -->
<g id="edge3" class="edge"><title>ActiveRecord::Base&#45;&gt;BikeRack</title>
<path fill="none" stroke="black" d="M288.969,-569.67C272.301,-553.402 245.804,-527.54 219.7,-502.061"/>
</g>
<!-- ActiveRecord::Base&#45;&gt;Rating -->
<g id="edge5" class="edge"><title>ActiveRecord::Base&#45;&gt;Rating</title>
<path fill="none" stroke="black" d="M293.866,-569.554C284.464,-555.645 272.158,-535.045 266.212,-515 244.355,-441.321 242.021,-352.374 243.568,-293.775"/>
</g>
<!-- ActiveRecord::Base&#45;&gt;User -->
<g id="edge9" class="edge"><title>ActiveRecord::Base&#45;&gt;User</title>
<path fill="none" stroke="black" d="M312.414,-569.364C319.515,-549.747 331.56,-516.471 342.353,-486.651"/>
</g>
<!-- ActiveRecord::Base&#45;&gt;UserF -->
<g id="edge10" class="edge"><title>ActiveRecord::Base&#45;&gt;UserF</title>
<path fill="none" stroke="black" d="M348.577,-572.012C381.666,-559.621 427.959,-539.861 464.212,-515 473.458,-508.659 482.606,-501.349 491.347,-493.682"/>
</g>
</g>
</svg>
