<?xml version="1.0" encoding="UTF-8" standalone="no"?>
<!DOCTYPE svg PUBLIC "-//W3C//DTD SVG 1.1//EN"
 "http://www.w3.org/Graphics/SVG/1.1/DTD/svg11.dtd">
<!-- Generated by graphviz version 2.38.0 (20140413.2041)
 -->
<!-- Title: models_diagram Pages: 1 -->
<svg xmlns="http://www.w3.org/2000/svg" xmlns:xlink="http://www.w3.org/1999/xlink">
<g id="graph0" class="graph" transform="scale(1 1) rotate(0) translate(4 628)">
<title>models_diagram</title>
<polygon fill="none" stroke="none" points="-4,4 -4,-628 512.883,-628 512.883,4 -4,4"/>
<!-- _diagram_info -->
<g id="node1" class="node"><title>_diagram_info</title>
</g>
<!-- BikeRack -->
<g id="node2" class="node"><title>BikeRack</title>
<path fill="none" stroke="black" d="M346.099,-330.5C346.099,-330.5 482.324,-330.5 482.324,-330.5 488.324,-330.5 494.324,-336.5 494.324,-342.5 494.324,-342.5 494.324,-502.5 494.324,-502.5 494.324,-508.5 488.324,-514.5 482.324,-514.5 482.324,-514.5 346.099,-514.5 346.099,-514.5 340.099,-514.5 334.099,-508.5 334.099,-502.5 334.099,-502.5 334.099,-342.5 334.099,-342.5 334.099,-336.5 340.099,-330.5 346.099,-330.5"/>
<text text-anchor="middle" x="414.212" y="-499.3" font-family="Times,serif" font-size="14.00">BikeRack</text>
<polyline fill="none" stroke="black" points="334.099,-492.5 494.324,-492.5 "/>
<text text-anchor="start" x="342.099" y="-477.3" font-family="Times,serif" font-size="14.00">id :INTEGER</text>
<text text-anchor="start" x="342.099" y="-463.3" font-family="Times,serif" font-size="14.00">street_number :varchar</text>
<text text-anchor="start" x="342.099" y="-449.3" font-family="Times,serif" font-size="14.00">street_name :varchar</text>
<text text-anchor="start" x="342.099" y="-435.3" font-family="Times,serif" font-size="14.00">street_side :varchar</text>
<text text-anchor="start" x="342.099" y="-421.3" font-family="Times,serif" font-size="14.00">number_of_racks :integer</text>
<text text-anchor="start" x="342.099" y="-407.3" font-family="Times,serif" font-size="14.00">latitude :float</text>
<text text-anchor="start" x="342.099" y="-393.3" font-family="Times,serif" font-size="14.00">longitude :float</text>
<text text-anchor="start" x="342.099" y="-379.3" font-family="Times,serif" font-size="14.00">created_at :datetime</text>
<text text-anchor="start" x="342.099" y="-365.3" font-family="Times,serif" font-size="14.00">updated_at :datetime</text>
<text text-anchor="start" x="342.099" y="-351.3" font-family="Times,serif" font-size="14.00">avg_cleanliness :float</text>
<text text-anchor="start" x="342.099" y="-337.3" font-family="Times,serif" font-size="14.00">avg_safety :float</text>
</g>
<!-- CleanlinessRating -->
<g id="node3" class="node"><title>CleanlinessRating</title>
<path fill="none" stroke="black" d="M232.541,-0.5C232.541,-0.5 343.883,-0.5 343.883,-0.5 349.883,-0.5 355.883,-6.5 355.883,-12.5 355.883,-12.5 355.883,-116.5 355.883,-116.5 355.883,-122.5 349.883,-128.5 343.883,-128.5 343.883,-128.5 232.541,-128.5 232.541,-128.5 226.541,-128.5 220.541,-122.5 220.541,-116.5 220.541,-116.5 220.541,-12.5 220.541,-12.5 220.541,-6.5 226.541,-0.5 232.541,-0.5"/>
<text text-anchor="middle" x="288.212" y="-113.3" font-family="Times,serif" font-size="14.00">CleanlinessRating</text>
<polyline fill="none" stroke="black" points="220.541,-106.5 355.883,-106.5 "/>
<text text-anchor="start" x="228.541" y="-91.3" font-family="Times,serif" font-size="14.00">id :INTEGER</text>
<text text-anchor="start" x="228.541" y="-77.3" font-family="Times,serif" font-size="14.00">user_id :integer</text>
<text text-anchor="start" x="228.541" y="-63.3" font-family="Times,serif" font-size="14.00">bike_rack_id :integer</text>
<text text-anchor="start" x="228.541" y="-49.3" font-family="Times,serif" font-size="14.00">type :varchar</text>
<text text-anchor="start" x="228.541" y="-35.3" font-family="Times,serif" font-size="14.00">score :integer</text>
<text text-anchor="start" x="228.541" y="-21.3" font-family="Times,serif" font-size="14.00">created_at :datetime</text>
<text text-anchor="start" x="228.541" y="-7.3" font-family="Times,serif" font-size="14.00">updated_at :datetime</text>
</g>
<!-- BikeRack&#45;&gt;CleanlinessRating -->
<g id="edge1" class="edge"><title>BikeRack&#45;&gt;CleanlinessRating</title>
<path fill="none" stroke="#238daf" d="M407.426,-322.333C401.273,-273.282 389.548,-214.203 367.212,-165 362.893,-155.487 357.469,-146.089 351.495,-137.088"/>
<ellipse fill="none" stroke="#238daf" cx="407.923" cy="-326.457" rx="4.00001" ry="4.00001"/>
<polygon fill="#238daf" stroke="#238daf" points="351.306,-136.814 349.319,-126.029 348.462,-132.701 345.618,-128.589 345.618,-128.589 345.618,-128.589 348.462,-132.701 341.916,-131.148 351.306,-136.814 351.306,-136.814"/>
</g>
<!-- SafetyRating -->
<g id="node5" class="node"><title>SafetyRating</title>
<path fill="none" stroke="black" d="M385.541,-0.5C385.541,-0.5 496.883,-0.5 496.883,-0.5 502.883,-0.5 508.883,-6.5 508.883,-12.5 508.883,-12.5 508.883,-116.5 508.883,-116.5 508.883,-122.5 502.883,-128.5 496.883,-128.5 496.883,-128.5 385.541,-128.5 385.541,-128.5 379.541,-128.5 373.541,-122.5 373.541,-116.5 373.541,-116.5 373.541,-12.5 373.541,-12.5 373.541,-6.5 379.541,-0.5 385.541,-0.5"/>
<text text-anchor="middle" x="441.212" y="-113.3" font-family="Times,serif" font-size="14.00">SafetyRating</text>
<polyline fill="none" stroke="black" points="373.541,-106.5 508.883,-106.5 "/>
<text text-anchor="start" x="381.541" y="-91.3" font-family="Times,serif" font-size="14.00">id :INTEGER</text>
<text text-anchor="start" x="381.541" y="-77.3" font-family="Times,serif" font-size="14.00">user_id :integer</text>
<text text-anchor="start" x="381.541" y="-63.3" font-family="Times,serif" font-size="14.00">bike_rack_id :integer</text>
<text text-anchor="start" x="381.541" y="-49.3" font-family="Times,serif" font-size="14.00">type :varchar</text>
<text text-anchor="start" x="381.541" y="-35.3" font-family="Times,serif" font-size="14.00">score :integer</text>
<text text-anchor="start" x="381.541" y="-21.3" font-family="Times,serif" font-size="14.00">created_at :datetime</text>
<text text-anchor="start" x="381.541" y="-7.3" font-family="Times,serif" font-size="14.00">updated_at :datetime</text>
</g>
<!-- BikeRack&#45;&gt;SafetyRating -->
<g id="edge2" class="edge"><title>BikeRack&#45;&gt;SafetyRating</title>
<path fill="none" stroke="#413a51" d="M421.755,-322.041C426.168,-263.856 431.643,-191.666 435.66,-138.701"/>
<ellipse fill="none" stroke="#413a51" cx="421.432" cy="-326.295" rx="4" ry="4"/>
<polygon fill="#413a51" stroke="#413a51" points="435.661,-138.681 440.905,-129.05 436.04,-133.695 436.418,-128.709 436.418,-128.709 436.418,-128.709 436.04,-133.695 431.931,-128.369 435.661,-138.681 435.661,-138.681"/>
</g>
<!-- Rating -->
<g id="node4" class="node"><title>Rating</title>
<path fill="none" stroke="black" d="M234.541,-165.5C234.541,-165.5 345.883,-165.5 345.883,-165.5 351.883,-165.5 357.883,-171.5 357.883,-177.5 357.883,-177.5 357.883,-281.5 357.883,-281.5 357.883,-287.5 351.883,-293.5 345.883,-293.5 345.883,-293.5 234.541,-293.5 234.541,-293.5 228.541,-293.5 222.541,-287.5 222.541,-281.5 222.541,-281.5 222.541,-177.5 222.541,-177.5 222.541,-171.5 228.541,-165.5 234.541,-165.5"/>
<text text-anchor="middle" x="290.212" y="-278.3" font-family="Times,serif" font-size="14.00">Rating</text>
<polyline fill="none" stroke="black" points="222.541,-271.5 357.883,-271.5 "/>
<text text-anchor="start" x="230.541" y="-256.3" font-family="Times,serif" font-size="14.00">id :INTEGER</text>
<text text-anchor="start" x="230.541" y="-242.3" font-family="Times,serif" font-size="14.00">user_id :integer</text>
<text text-anchor="start" x="230.541" y="-228.3" font-family="Times,serif" font-size="14.00">bike_rack_id :integer</text>
<text text-anchor="start" x="230.541" y="-214.3" font-family="Times,serif" font-size="14.00">type :varchar</text>
<text text-anchor="start" x="230.541" y="-200.3" font-family="Times,serif" font-size="14.00">score :integer</text>
<text text-anchor="start" x="230.541" y="-186.3" font-family="Times,serif" font-size="14.00">created_at :datetime</text>
<text text-anchor="start" x="230.541" y="-172.3" font-family="Times,serif" font-size="14.00">updated_at :datetime</text>
</g>
<!-- Rating&#45;&gt;CleanlinessRating -->
<g id="edge4" class="edge"><title>Rating&#45;&gt;CleanlinessRating</title>
<path fill="none" stroke="black" d="M289.438,-165.48C289.29,-153.386 289.135,-140.719 288.986,-128.621"/>
</g>
<!-- Rating&#45;&gt;SafetyRating -->
<g id="edge6" class="edge"><title>Rating&#45;&gt;SafetyRating</title>
<path fill="none" stroke="black" d="M348.592,-165.48C359.796,-153.386 371.531,-140.719 382.737,-128.621"/>
</g>
<!-- User -->
<g id="node6" class="node"><title>User</title>
<path fill="none" stroke="black" d="M109.996,-358.5C109.996,-358.5 266.427,-358.5 266.427,-358.5 272.427,-358.5 278.427,-364.5 278.427,-370.5 278.427,-370.5 278.427,-474.5 278.427,-474.5 278.427,-480.5 272.427,-486.5 266.427,-486.5 266.427,-486.5 109.996,-486.5 109.996,-486.5 103.996,-486.5 97.9958,-480.5 97.9958,-474.5 97.9958,-474.5 97.9958,-370.5 97.9958,-370.5 97.9958,-364.5 103.996,-358.5 109.996,-358.5"/>
<text text-anchor="middle" x="188.212" y="-471.3" font-family="Times,serif" font-size="14.00">User</text>
<polyline fill="none" stroke="black" points="97.9958,-464.5 278.427,-464.5 "/>
<text text-anchor="start" x="105.996" y="-449.3" font-family="Times,serif" font-size="14.00">id :INTEGER</text>
<text text-anchor="start" x="105.996" y="-435.3" font-family="Times,serif" font-size="14.00">username :varchar</text>
<text text-anchor="start" x="105.996" y="-421.3" font-family="Times,serif" font-size="14.00">email :varchar</text>
<text text-anchor="start" x="105.996" y="-407.3" font-family="Times,serif" font-size="14.00">encrypted_password :varchar</text>
<text text-anchor="start" x="105.996" y="-393.3" font-family="Times,serif" font-size="14.00">salt :varchar</text>
<text text-anchor="start" x="105.996" y="-379.3" font-family="Times,serif" font-size="14.00">created_at :datetime</text>
<text text-anchor="start" x="105.996" y="-365.3" font-family="Times,serif" font-size="14.00">updated_at :datetime</text>
</g>
<!-- User&#45;&gt;Rating -->
<g id="edge7" class="edge"><title>User&#45;&gt;Rating</title>
<path fill="none" stroke="#757178" d="M225.724,-351.257C234.169,-335.443 243.145,-318.635 251.633,-302.741"/>
<ellipse fill="none" stroke="#757178" cx="223.777" cy="-354.902" rx="4.00002" ry="4.00002"/>
<polygon fill="#757178" stroke="#757178" points="251.855,-302.325 260.535,-295.623 254.21,-297.914 256.566,-293.504 256.566,-293.504 256.566,-293.504 254.21,-297.914 252.596,-291.384 251.855,-302.325 251.855,-302.325"/>
</g>
<!-- ActiveRecord::Base -->
<g id="node7" class="node"><title>ActiveRecord::Base</title>
<ellipse fill="none" stroke="black" cx="306.212" cy="-587.5" rx="81.1422" ry="18"/>
<text text-anchor="middle" x="306.212" y="-583.3" font-family="Times,serif" font-size="14.00">ActiveRecord::Base</text>
</g>
<!-- ActiveRecord::Base&#45;&gt;BikeRack -->
<g id="edge3" class="edge"><title>ActiveRecord::Base&#45;&gt;BikeRack</title>
<path fill="none" stroke="black" d="M317.565,-569.364C326.556,-555.796 339.875,-535.693 353.772,-514.719"/>
</g>
<!-- ActiveRecord::Base&#45;&gt;Rating -->
<g id="edge5" class="edge"><title>ActiveRecord::Base&#45;&gt;Rating</title>
<path fill="none" stroke="black" d="M305.44,-569.329C303.233,-520.231 296.815,-377.413 293.052,-293.694"/>
</g>
<!-- ActiveRecord::Base&#45;&gt;User -->
<g id="edge8" class="edge"><title>ActiveRecord::Base&#45;&gt;User</title>
<path fill="none" stroke="black" d="M294.028,-569.67C279.837,-550.067 255.561,-516.533 233.838,-486.526"/>
</g>
</g>
</svg>
